<svg xmlns="http://www.w3.org/2000/svg" width="30.194" height="30.194" viewBox="0 0 30.194 30.194"><g transform="translate(-2 -2)"><path d="M28.555,33.1H6a1,1,0,0,1-1-1V18a1,1,0,0,1,2,0V31.1H27.555V18a1,1,0,0,1,2,0V32.1A1,1,0,0,1,28.555,33.1Z" transform="translate(-0.181 -0.903)" fill="#2ca3ff"/><path d="M3,9.5H31.194a1,1,0,0,1,1,1v7.049a1,1,0,0,1-1,1H3a1,1,0,0,1-1-1V10.5A1,1,0,0,1,3,9.5Zm27.194,2H4v5.049H30.194Z" transform="translate(0 -0.451)" fill="#2ca3ff"/><path d="M18,32.646a1,1,0,0,1-1-1V10.5a1,1,0,0,1,2,0V31.646A1,1,0,0,1,18,32.646Z" transform="translate(-0.903 -0.451)" fill="#2ca3ff"/><path d="M17.368,11.049H11.024a4.524,4.524,0,0,1,0-9.049c2.4,0,4.444,1.4,5.9,4.042a14.817,14.817,0,0,1,1.426,3.81,1,1,0,0,1-.981,1.2ZM11.024,4a2.524,2.524,0,1,0,0,5.049H16.05C15.444,7.235,13.953,4,11.024,4Z" transform="translate(-0.271)" fill="#2ca3ff"/><path d="M24.344,11.049H18a1,1,0,0,1-.981-1.2,14.817,14.817,0,0,1,1.426-3.81C19.9,3.4,21.939,2,24.344,2a4.524,4.524,0,0,1,0,9.049Zm-5.028-2h5.028a2.524,2.524,0,0,0,0-5.049C22.69,4,21.295,5.011,20.2,7.006A12.489,12.489,0,0,0,19.315,9.049Z" transform="translate(-0.903)" fill="#2ca3ff"/></g></svg>