<svg xmlns="http://www.w3.org/2000/svg" width="17" height="17" viewBox="0 0 17 17"><defs><style>.a{fill:#ff2c4f;}.b{fill:#ff002a;}.c{fill:#fff;}</style></defs><g transform="translate(-327 -195)"><circle class="a" cx="8.5" cy="8.5" r="8.5" transform="translate(327 195)"/><path class="b" d="M8.5,1A7.5,7.5,0,1,0,16,8.5,7.508,7.508,0,0,0,8.5,1m0-1A8.5,8.5,0,1,1,0,8.5,8.5,8.5,0,0,1,8.5,0Z" transform="translate(327 195)"/><path class="c" d="M8.394,5.8H5.489V2.9a.646.646,0,0,0-.646-.646H4.2a.646.646,0,0,0-.646.646V5.8H.646A.646.646,0,0,0,0,6.447v.646a.646.646,0,0,0,.646.646H3.551v2.906a.646.646,0,0,0,.646.646h.646a.646.646,0,0,0,.646-.646V7.739H8.394a.646.646,0,0,0,.646-.646V6.447A.646.646,0,0,0,8.394,5.8Z" transform="translate(336.983 195.409) rotate(45)"/></g></svg>