<svg xmlns="http://www.w3.org/2000/svg" width="29.02" height="31.995" viewBox="0 0 29.02 31.995"><g transform="translate(-3.49 -2)"><path d="M31.5,26.5H4.5a1,1,0,0,1-.969-.715.987.987,0,0,1,.41-1.115,7.827,7.827,0,0,0,2.012-2.612C6.887,20.289,8,17.107,8,12a10,10,0,0,1,20,0c0,5.107,1.113,8.289,2.047,10.059a7.827,7.827,0,0,0,2.012,2.612.987.987,0,0,1,.41,1.115A1,1,0,0,1,31.5,26.5Zm-24.708-2H29.208C27.782,22.511,26,18.687,26,12a8,8,0,0,0-16,0C10,18.687,8.218,22.511,6.792,24.5Z" fill="#2ca3ff"/><path d="M18,33.995A4.012,4.012,0,0,1,14.54,32a1,1,0,1,1,1.73-1,2,2,0,0,0,3.46,0,1,1,0,1,1,1.73,1A4.012,4.012,0,0,1,18,33.995Z" fill="#2ca3ff"/></g></svg>