<svg xmlns="http://www.w3.org/2000/svg" width="31.5" height="31.5" viewBox="0 0 31.5 31.5"><g transform="translate(-2.25 -2.25)"><path d="M2.25,27H21.375v2.25H2.25Z" fill="#2ca3ff"/><path d="M28.125,27H33.75v2.25H28.125Z" fill="#2ca3ff"/><path d="M27,31.465a2.268,2.268,0,0,1-2.25,2.285h0a2.268,2.268,0,0,1-2.25-2.285v-6.68A2.268,2.268,0,0,1,24.75,22.5h0A2.268,2.268,0,0,1,27,24.785Z" fill="#2ca3ff"/><path d="M2.25,16.875H7.875v2.25H2.25Z" fill="#2ca3ff"/><path d="M14.625,16.875H33.75v2.25H14.625Z" fill="#2ca3ff"/><path d="M13.5,21.34a2.268,2.268,0,0,1-2.25,2.285h0A2.268,2.268,0,0,1,9,21.34V14.66a2.268,2.268,0,0,1,2.25-2.285h0A2.268,2.268,0,0,1,13.5,14.66Z" fill="#2ca3ff"/><path d="M2.25,6.75H21.375V9H2.25Z" fill="#2ca3ff"/><path d="M28.125,6.75H33.75V9H28.125Z" fill="#2ca3ff"/><path d="M27,11.215A2.268,2.268,0,0,1,24.75,13.5h0a2.268,2.268,0,0,1-2.25-2.285V4.535A2.268,2.268,0,0,1,24.75,2.25h0A2.268,2.268,0,0,1,27,4.535Z" fill="#2ca3ff"/></g></svg>