<svg xmlns="http://www.w3.org/2000/svg" width="14.505" height="24.619" viewBox="0 0 14.505 24.619"><g transform="translate(-31.498 -204)"><path d="M15.321,18l8.937-8.93a1.688,1.688,0,0,0-2.391-2.384L11.742,16.8a1.685,1.685,0,0,0-.049,2.327L21.86,29.32a1.688,1.688,0,0,0,2.391-2.384Z" transform="translate(20.749 198.306)" fill="#fff"/><path d="M23.055,30.313a2.175,2.175,0,0,1-1.549-.639L11.324,19.47a2.18,2.18,0,0,1,.065-3.018L21.514,6.333a2.193,2.193,0,0,1,1.552-.639,2.184,2.184,0,0,1,1.545,3.73L16.028,18,24.6,26.583a2.184,2.184,0,0,1-1.549,3.729Zm-11-11.525,10.159,10.18a1.191,1.191,0,0,0,2.032-.844,1.164,1.164,0,0,0-.347-.831L14.614,18,23.9,8.717a1.181,1.181,0,0,0,.349-.844,1.164,1.164,0,0,0-.347-.831,1.179,1.179,0,0,0-.84-.349,1.2,1.2,0,0,0-.847.349L12.1,17.158A1.182,1.182,0,0,0,12.055,18.787Z" transform="translate(20.749 198.306)" fill="#2ca3ff"/></g></svg>