<svg xmlns="http://www.w3.org/2000/svg" width="23.032" height="25.369" viewBox="0 0 23.032 25.369"><g transform="translate(-3.5 -2)"><path d="M8.005,2H22.026a1,1,0,0,1,.8.4l3.505,4.674a1,1,0,0,1,.2.6V24.032a3.341,3.341,0,0,1-3.337,3.337H6.837A3.341,3.341,0,0,1,3.5,24.032V7.674a1,1,0,0,1,.2-.6L7.205,2.4A1,1,0,0,1,8.005,2ZM21.526,4H8.505L5.5,8.007V24.032a1.338,1.338,0,0,0,1.337,1.337H23.195a1.338,1.338,0,0,0,1.337-1.337V8.007Z" fill="#fff"/><path d="M25.532,10H4.5a1,1,0,0,1,0-2H25.532a1,1,0,1,1,0,2Z" transform="translate(0 -1.326)" fill="#fff"/><path d="M16.674,20.674A5.68,5.68,0,0,1,11,15a1,1,0,0,1,2,0,3.674,3.674,0,0,0,7.347,0,1,1,0,1,1,2,0A5.68,5.68,0,0,1,16.674,20.674Z" transform="translate(-1.658 -2.653)" fill="#fff"/></g></svg>