<svg xmlns="http://www.w3.org/2000/svg" width="57.146" height="62.94" viewBox="0 0 57.146 62.94"><g transform="translate(-2 -0.5)"><path d="M13.191.5H47.955a2.5,2.5,0,0,1,2,1l8.691,11.588a2.5,2.5,0,0,1,.5,1.5V55.146a8.3,8.3,0,0,1-8.294,8.294H10.294A8.3,8.3,0,0,1,2,55.146V14.588a2.5,2.5,0,0,1,.5-1.5L11.191,1.5A2.5,2.5,0,0,1,13.191.5ZM46.7,5.5H14.441L7,15.421V55.146a3.3,3.3,0,0,0,3.294,3.294H50.852a3.3,3.3,0,0,0,3.294-3.294V15.421Z" fill="#2a9bf2"/><path d="M56.646,11.5H4.5a2.5,2.5,0,0,1,0-5H56.646a2.5,2.5,0,0,1,0,5Z" transform="translate(0 5.588)" fill="#2a9bf2"/><path d="M23.588,29.088A14.088,14.088,0,0,1,9.5,15a2.5,2.5,0,0,1,5,0,9.088,9.088,0,1,0,18.176,0,2.5,2.5,0,0,1,5,0A14.088,14.088,0,0,1,23.588,29.088Z" transform="translate(6.985 11.176)" fill="#2a9bf2"/></g></svg>